<svg width="24" height="24" viewBox="0 0 24 24" fill="none" xmlns="http://www.w3.org/2000/svg">
<path d="M17.1238 9.62376C17.4167 9.91666 17.4167 10.3915 17.1238 10.6844L12.5842 15.224C12.5683 15.2435 12.5513 15.2624 12.5331 15.2806C12.386 15.4277 12.1928 15.5008 12 15.5002C11.8072 15.5008 11.614 15.4277 11.4669 15.2806C11.4487 15.2624 11.4317 15.2435 11.4158 15.224L6.87624 10.6844C6.58334 10.3915 6.58334 9.91666 6.87624 9.62376C7.16916 9.33119 7.64411 9.33097 7.9369 9.62376L12 13.6869L16.0631 9.62376C16.3559 9.33097 16.8308 9.33119 17.1238 9.62376Z" fill="#888888"/>
</svg>
